<?xml version="1.0" encoding="UTF-8" standalone="no"?>
<svg xmlns:inkscape="http://www.inkscape.org/namespaces/inkscape" xmlns:rdf="http://www.w3.org/1999/02/22-rdf-syntax-ns#" xmlns="http://www.w3.org/2000/svg" xmlns:sodipodi="http://sodipodi.sourceforge.net/DTD/sodipodi-0.dtd" xmlns:ns1="http://sozi.baierouge.fr" xmlns:cc="http://web.resource.org/cc/" xmlns:xlink="http://www.w3.org/1999/xlink" xmlns:dc="http://purl.org/dc/elements/1.1/" viewBox="0 0 280 257">
  <path style="fill:#030303" d="m0 0v229h1l15-91-15-2v-6c3.917-0.66 5.4327-2.42 7-6l-2-4c3.3182 0 9.514 1.18 12.258-1.03 3.343-2.68 3.151-11.99 3.823-15.97 2.535-15.011 5.351-29.98 7.839-45 0.782-4.725 0.615-12.904 3.822-16.678 3.312-3.898 7.06-0.349 6.913 3.683-0.307 8.438-2.544 17.836-4.655 25.995h7l4-44-7-6h5v-4l7-1-6-4v-1l7-10-17-1h-36z"/>
  <path style="fill:#e9bb8c" d="m47 11l5 5-7 1v4h-5v3h16c-0.751-6.761 3.277-13.4 2.393-19.891-0.715-5.2499-6.684-3.653-8.379-0.0041-1.081 2.3266-1.706 4.6529-3.014 6.8951z"/>
  <path style="fill:#030303" d="m56 0v1c3.921 4.313 2.782 13.436 2.165 18.999-1.874 16.917-6.022 33.78-6.165 51.001h6c0-9.049-0.285-19.063 1.148-27.985 0.506-3.151 3.169-6.409 6.69-4.727 3.361 1.604 2.31 5.758 2.201 8.712-0.295 7.98-0.039 16.014-0.039 24h4l2 9-6.397 3.43-0.603 13.57-1 28 9 1v4h-4l-2.443 17.09 11.443 73.91c-13.481 0.78-14.548-30.48-15-41h-1l-1.001 52-2.027 21.59-8.972 0.41 1-41-28-7.54-10.4-1.39-2.6 7.93-4 24-8-2v23h280v-257h-79v1l3.03 23.397 15.97 1.693 47 2.91c-5.84 24.26-7.43 50.284-10.87 75-0.81 5.83-0.34 22.39-5.45 25.94-5.65 3.92-24.07-0.71-30.68-1.94l-4 2-2.44 17.09 11.44 73.91c-13.61-0.33-14.52-29.74-15-41h-1l-1 51-2.03 22.59-8.97 0.41 1-41-39-11-6 34c-11.93-2.17-5.98-15.38-4.42-24 4.37-24.28 10.48-49.42 12.42-74l-15-2v-6c3.92-0.66 5.43-2.42 7-6-9.07-5.2-23.66-4.99-34-5 1.03-23.888 6.86-48.325 10.27-72 0.86-5.935 0.31-20.373 5.96-23.821 4.24-2.592 10.2-0.419 14.77-0.218 11.67 0.511 23.3 1.039 35 1.039v-3h5v-5h7l-6-4v-1l7-10c-11.22-4.7072-30.79-1-43-1h-99z"/>
  <path style="fill:#e9bb8c" d="m192 11l5 5h-7v5h-5v3h16c0-6.4 3.27-13.785 2.4-19.891-0.76-5.2319-6.68-3.674-8.39-0.0041-1.08 2.3266-1.7 4.6529-3.01 6.8951z"/>
  <path style="fill:#a77b4e" d="m57 10l-1 14h-16v1l18 2-1-17m-11 1v1h3l-3-1m145 0v1h3l-3-1z"/>
  <path style="fill:#cc9a64" d="m202 11l-1 13h-16v1l18 1 1-15h-2z"/>
  <path style="fill:#a77b4e" d="m47.667 17.333l0.666 0.334-0.666-0.334m145 0l0.66 0.334-0.66-0.334z"/>
  <path style="fill:#ecdfcd" d="m119 119c22.9 0.06 46.19 2.66 69 4.83 6.95 0.66 19.86-1.61 24 5.17l38 3c-1.42-12.7 2.91-27.38 4.73-40 2.85-19.758 2.34-44.646 10.27-63-31.61-5.869-65.15-1.528-97-5.286-6.88-0.811-29.14-5.053-34.26 0.028-4.59 4.556-4.01 19.054-4.87 25.258-3.2 22.947-9.39 46.839-9.87 70m-72-93l-4 45c-7.242 0.086-8.453 3.138-9 10h8l-5 41 7 1 11-97h-8z"/>
  <path style="fill:#cc9a64" d="m55 27c-4.653 15.735-5.989 37.593-6 54h1l4.424-36 0.576-18m200 63h1l3-3 8-58c-5.47 3.008-5.08 10.36-5.87 16-2.08 14.909-4.95 30.002-6.13 45z"/>
  <path style="fill:#ecdfcd" d="m58 71h-7v2h7l-1 52h7l2-88c-11.13 1.254-8 25.086-8 34z"/>
  <path style="fill:#cc9a64" d="m66 38l-2 87h2c0-21.64 2-43.366 2-65 0-5.614 2.767-18.589-2-22z"/>
  <path style="fill:#ecdfcd" d="m25 122c1.52-10.34 3.524-20.66 5.247-31 1.175-7.054 3.058-13.93 4.163-21 0.684-4.383 1.186-8.65 2.077-13 0.4-1.955 4.017-22.861-2.634-16.353-3.495 3.42-3.334 12.759-4.1 17.353-2.443 14.66-4.759 29.404-7.556 44-1.22 6.36-6.559 19.27 2.803 20z"/>
  <path style="fill:#cc9a64" d="m37 39v1c3.868 5.318-1.008 15.83-1.819 22-2.617 19.885-9.014 39.87-9.181 60h1l7-40h8v-1h-8c1.298-10.04 4.262-19.965 5.92-30 0.774-4.685 2.588-10.172-2.92-12z"/>
  <path style="fill:#a77b4e" d="m68 39l1 1-1-1z"/>
  <path style="fill:#ffff01" d="m32 42l1 1-1-1z"/>
  <path style="fill:#a77b4e" d="m37 64l1 1-1-1m89 1l1 1-1-1z"/>
  <path style="fill:#ecdfcd" d="m67 71l2 11-1-9 4 8h1l-1-10h-5z"/>
  <path style="fill:#e9bb8c" d="m51 73c-1.8 14.6-1.133 37.38 5 51l-10-1v-11h-1l-1 11-18-1v-4h-1v4l-19-2v4l69 6v-4l-18-1 1-52h-7z"/>
  <path style="fill:#cc9a64" d="m68 73v8h4l-4-8z"/>
  <path style="fill:#a77b4e" d="m49 81l-3 42 5-8h-2l3-34h-3z"/>
  <path style="fill:#030303" d="m34 82c-0.415 9.638-2.99 19.48-4.586 29-0.442 2.63-2.288 7.77 0.204 9.82 3.064 2.52 7.565 0.79 8.238-2.88 2.168-11.82 1.354-24.227 4.144-35.94h-8z"/>
  <path style="fill:#e9bb8c" d="m48 82v8h1l-1-8z"/>
  <path style="fill:#a77b4e" d="m256 87l-6 44 4.27-13 4.73-31h-3z"/>
  <path style="fill:#e9bb8c" d="m47 92v8h1l-1-8z"/>
  <path style="fill:#ffff01" d="m22 100l1 1-1-1z"/>
  <path style="fill:#030303" d="m51 100l-2 15 5 6h1l-4-21z"/>
  <path style="fill:#cc9a64" d="m46 102v16h1l-1-16z"/>
  <path style="fill:#ecdfcd" d="m28 116l1 1-1-1z"/>
  <path style="fill:#cc9a64" d="m51 116c-0.814 4.4 0.716 6.73 5 8l-5-8z"/>
  <path style="fill:#ffff01" d="m53 119l1 1-1-1z"/>
  <path style="fill:#a77b4e" d="m18 120l1 1-1-1z"/>
  <path style="fill:#030303" d="m48 123l5 1-2-4-3 3z"/>
  <path style="fill:#e9bb8c" d="m151 124l4 2c6.08-3.23 14.34-1.08 21-0.28 11.92 1.42 24.21 1.09 36 3.28-1.41-4.83-7.67-4.19-12-4.74-11.89-1.51-24.12-1.12-36-2.85-4.57-0.66-11.55-2.89-13 2.59z"/>
  <path style="fill:#cc9a64" d="m8 124l-3 7 55 6v6h3l-3 113h1l2.054-34.98 1.946-78.02h1l8 50h1l-6.076-43.98 2.076-20.02-63-5m145 0l-3 7 55 6v6h3l-3 113h1c4.33-14.64 2-34.69 2-50h1v10h1v-73h2l8.41 58 4.59 20-11.12-72.96 2.12-18.04h4v-3l-47-2-20-1m96 4v3h1l-1-3z"/>
  <path style="fill:#e9bb8c" d="m1 130v6c8.1154 1.51 30.312-0.23 35 7h1v-3l7 1v5l5-2-3 1v-3l14 1v-6l-59-7m145 0v6c8.12 1.51 30.31-0.23 35 7h1v-3l8 1v5l4-2-3 1v-3l14 1v-6l-59-7z"/>
  <path style="fill:#a77b4e" d="m42.333 132.67l0.334 0.66-0.334-0.66m145 0l0.34 0.66-0.34-0.66z"/>
  <path style="fill:#ecdfcd" d="m16 138c-3.195 24.74-8.4784 49.41-12.75 74-1.1771 6.78-7.268 22.22 2.75 23l16-97h-6z"/>
  <path style="fill:#cc9a64" d="m23 138l-12.905 69-6.095 28v1h4l6-43 16 4-14-5 6.08-37 0.92-17z"/>
  <path style="fill:#ecdfcd" d="m161 138c-3.14 24.72-8.03 49.52-12.61 74-1.29 6.89-7.44 21.84 2.61 23l6-36c4.07 5.7 17.1 9.37 24 10l6-68-5-1-7 57-16-4 8-55h-6z"/>
  <path style="fill:#cc9a64" d="m168 138c-5.66 15.11-6.74 34.01-8 50h1l6.42-35 0.58-15z"/>
  <path style="fill:#030303" d="m24 139l-8 53 14 3 5-49h-3l1-6-9-1m146 0l-9 53 14 3 5-49h-3l1-6-8-1z"/>
  <path style="fill:#a77b4e" d="m32 146h4v-6c-3.321 1.1-3.737 2.59-4 6z"/>
  <path style="fill:#ecdfcd" d="m37 140c-4.185 18.26-6.988 38.2-7 57l-16-4c0.009 11.57 11.272 15.04 22 16l6-68-5-1z"/>
  <path style="fill:#a77b4e" d="m178 140l-1 6h4v-6h-3m-136 1l-4 58h3l3-58h-2z"/>
  <path style="fill:#cc9a64" d="m187 141l-6 68h2v-9l16 3v-1l-16-3c1.43-11.28 1.68-22.74 3.3-34 1.07-7.43 3.74-16.76 0.7-24z"/>
  <path style="fill:#a77b4e" d="m188 141l-5 58h3l4-58h-2m-142 1c1.556 1.81 2.444 1.81 4 0h-4z"/>
  <path style="fill:#030303" d="m50 142l-4 4-5 53 13 3 2-59-6-1z"/>
  <path style="fill:#ecdfcd" d="m56 142l-2 61-16-3c0.008 10.52 6.142 12.2 16 13l-2 41 8 2 3-113-7-1z"/>
  <path style="fill:#a77b4e" d="m191 142v3l4-3h-4z"/>
  <path style="fill:#030303" d="m195 142l-4 4-5 53 13 3 2-59-6-1z"/>
  <path style="fill:#e9bb8c" d="m65 143c-0.056 20.47-0.154 38.63 3.247 59 1.278 7.65 0.059 18.46 9.753 19l-7.87-53-5.13-25z"/>
  <path style="fill:#ecdfcd" d="m201 143l-2 60-16-3v9l16 4-2 41 8 2 3-113h-7z"/>
  <path style="fill:#e9bb8c" d="m210 143c0 20.62 0.15 38.54 3.59 59 1.25 7.49 0.02 18.48 9.41 19l-11-78h-2z"/>
  <path style="fill:#cc9a64" d="m46.667 144.33l0.666 0.34-0.666-0.34m-4.667 1.67l-6 63h2v-9l16 3v-1l-16-3 4.014-39-0.014-14z"/>
  <path style="fill:#ecdfcd" d="m167 152l1 1-1-1z"/>
  <path style="fill:#ffff01" d="m69 153l1 1-1-1m89 0l1 1-1-1m59 19l1 1-1-1m-175 10l1 1-1-1z"/>
  <path style="fill:#a77b4e" d="m160 188v4h1l-1-4m-7.67 1.67l0.34 0.66-0.34-0.66m22.67-0.67v3h1l-1-3z"/>
  <path style="fill:#cc9a64" d="m159 190c1.16 5.45 11.31 5.72 16 7l-16-7z"/>
  <path style="fill:#a77b4e" d="m211 191l1 1-1-1m-136 2c0.001 6.94-0.508 23.26 5 28l-5-28m133 1v11h1l-1-11m4.33 1.67l0.34 0.66-0.34-0.66m-149.33 2.33v7h1l-1-7z"/>
  <path style="fill:#cc9a64" d="m157 199l-8 36v1h4c1.24-9.75 9.16-28.21 4-37z"/>
  <path style="fill:#a77b4e" d="m213.33 201.67l0.34 0.66-0.34-0.66z"/>
  <path style="fill:#ffff01" d="m4 205l1 1-1-1z"/>
  <path style="fill:#e9bb8c" d="m208 206v10h1l-1-10z"/>
  <path style="fill:#a77b4e" d="m214.33 207.67l0.34 0.66-0.34-0.66m-202.33 1.33l1 1-1-1m172.67 0.33l0.66 0.34-0.66-0.34z"/>
  <path style="fill:#ecdfcd" d="m157 210l1 1-1-1z"/>
  <path style="fill:#cc9a64" d="m53 213v7h1l-1-7z"/>
  <path style="fill:#a77b4e" d="m198 213v5h1l-1-5m17 0v3h1l-1-3m-138 8l1 1-1-1m-15 8v11h1l-1-11m145 1v12h1l-1-12z"/>
  <metadata>
    <rdf:RDF>
      <cc:Work>
        <dc:format>image/svg+xml</dc:format>
        <dc:type rdf:resource="http://purl.org/dc/dcmitype/StillImage"/>
        <cc:license rdf:resource="http://creativecommons.org/licenses/publicdomain/"/>
        <dc:publisher>
          <cc:Agent rdf:about="http://openclipart.org/">
            <dc:title>Openclipart</dc:title>
          </cc:Agent>
        </dc:publisher>
      </cc:Work>
      <cc:License rdf:about="http://creativecommons.org/licenses/publicdomain/">
        <cc:permits rdf:resource="http://creativecommons.org/ns#Reproduction"/>
        <cc:permits rdf:resource="http://creativecommons.org/ns#Distribution"/>
        <cc:permits rdf:resource="http://creativecommons.org/ns#DerivativeWorks"/>
      </cc:License>
    </rdf:RDF>
  </metadata>
</svg>
